<svg width="36" height="36" viewBox="0 0 36 36" fill="none" xmlns="http://www.w3.org/2000/svg">
<g clip-path="url(#clip0_629_4987)">
<path d="M22.6907 14.3599C22.4807 14.3599 22.2807 14.2999 22.1007 14.1899C21.9307 14.0799 21.7907 13.9099 21.7107 13.7199C21.6307 13.5299 21.6007 13.3199 21.6407 13.1099C21.6807 12.9099 21.7707 12.7199 21.9207 12.5699C22.0607 12.4199 22.2507 12.3199 22.4507 12.2699C22.6507 12.2299 22.8607 12.2399 23.0607 12.3199C23.2507 12.3999 23.4207 12.5299 23.5407 12.6999C23.6607 12.8699 23.7207 13.0699 23.7307 13.2799C23.7307 13.4199 23.7107 13.5599 23.6607 13.6899C23.6107 13.8199 23.5307 13.9399 23.4407 14.0399C23.3407 14.1399 23.2307 14.2199 23.1007 14.2699C22.9707 14.3199 22.8407 14.3499 22.7007 14.3599H22.6907Z" fill="url(#paint0_linear_629_4987)"/>
<path fill-rule="evenodd" clip-rule="evenodd" d="M17.9892 -0.00012207C14.4292 -0.00012207 10.9492 1.05988 7.99917 3.02988C5.03917 5.00988 2.72917 7.81988 1.36917 11.1099C-0.000833988 14.3999 -0.350834 18.0199 0.349166 21.5099C1.03917 24.9999 2.75917 28.2099 5.27917 30.7299C7.79917 33.2499 10.9992 34.9599 14.4992 35.6599C17.9892 36.3499 21.6092 35.9999 24.8992 34.6399C28.1892 33.2799 30.9992 30.9699 32.9792 28.0099C34.9592 25.0499 36.0092 21.5699 36.0092 18.0099C36.0092 15.6499 35.5392 13.2999 34.6392 11.1199C33.7392 8.93988 32.4092 6.94988 30.7392 5.27988C29.0692 3.60988 27.0792 2.27988 24.8992 1.37988C22.6992 0.459878 20.3592 -0.00012207 17.9892 -0.00012207ZM26.7592 20.4999C26.7792 21.3299 26.7192 22.1499 26.5592 22.9599C26.3792 23.8599 25.9392 24.6899 25.2792 25.3399C24.6192 25.9799 23.7892 26.4099 22.8792 26.5699C22.1192 26.7099 21.3392 26.7699 20.5592 26.7499H15.4892C14.6692 26.7699 13.8492 26.6999 13.0392 26.5399C12.1392 26.3699 11.3192 25.9199 10.6792 25.2699C10.0392 24.6199 9.60917 23.7899 9.44917 22.8899C9.30917 22.2299 9.24917 21.5599 9.26917 20.8999V15.0899C9.24917 14.2899 9.33917 13.4899 9.54917 12.7199C9.76917 11.8899 10.2192 11.1399 10.8492 10.5499C11.4792 9.96988 12.2592 9.57988 13.1092 9.41988C13.7692 9.28988 14.4392 9.22988 15.1092 9.23988H20.9392C21.7092 9.21988 22.4792 9.30988 23.2292 9.49988C24.0792 9.70988 24.8492 10.1699 25.4392 10.8199C26.0292 11.4699 26.4292 12.2699 26.5692 13.1399C26.7092 13.9199 26.7692 14.7199 26.7492 15.5199C26.7592 17.1599 26.7592 18.8499 26.7492 20.5099L26.7592 20.4999Z" fill="url(#paint1_linear_629_4987)"/>
<path fill-rule="evenodd" clip-rule="evenodd" d="M17.9592 22.4999C17.0692 22.4999 16.1992 22.2199 15.4692 21.7199C14.7292 21.2199 14.1592 20.5099 13.8292 19.6899C13.4992 18.8599 13.4092 17.9599 13.5892 17.0899C13.7692 16.2199 14.1992 15.4199 14.8392 14.7899C15.4692 14.1699 16.2792 13.7399 17.1492 13.5699C18.0192 13.3999 18.9292 13.4999 19.7492 13.8399C20.5692 14.1899 21.2692 14.7699 21.7592 15.5099C22.2492 16.2499 22.5092 17.1199 22.4992 18.0099C22.4992 18.5999 22.3792 19.1899 22.1492 19.7399C21.9192 20.2899 21.5792 20.7799 21.1592 21.1999C20.7392 21.6199 20.2392 21.9399 19.6892 22.1699C19.1392 22.3899 18.5492 22.4999 17.9592 22.4999ZM20.4392 19.6299C20.7592 19.1499 20.9292 18.5799 20.9292 17.9899C20.9292 17.5999 20.8592 17.2199 20.7092 16.8699C20.5592 16.5099 20.3492 16.1899 20.0692 15.9199C19.7892 15.6499 19.4692 15.4299 19.1192 15.2799C18.7592 15.1299 18.3792 15.0599 17.9992 15.0599C17.4192 15.0599 16.8492 15.2299 16.3592 15.5499C15.8792 15.8699 15.4992 16.3299 15.2692 16.8699C15.0492 17.4099 14.9892 17.9999 15.0992 18.5699C15.2092 19.1399 15.4892 19.6599 15.8992 20.0799C16.3092 20.4899 16.8392 20.7699 17.4092 20.8799C17.9792 20.9899 18.5692 20.9299 19.1092 20.7099C19.6492 20.4899 20.1092 20.1099 20.4292 19.6199L20.4392 19.6299Z" fill="url(#paint2_linear_629_4987)"/>
</g>
<defs>
<linearGradient id="paint0_linear_629_4987" x1="0.000683759" y1="13.3099" x2="36.0007" y2="13.3099" gradientUnits="userSpaceOnUse">
<stop stop-color="#A39BC4"/>
<stop offset="0.48" stop-color="#8E83C4"/>
<stop offset="0.88" stop-color="#8274C5"/>
</linearGradient>
<linearGradient id="paint1_linear_629_4987" x1="-0.000834001" y1="17.9999" x2="35.9992" y2="17.9999" gradientUnits="userSpaceOnUse">
<stop stop-color="#A39BC4"/>
<stop offset="0.48" stop-color="#8E83C4"/>
<stop offset="0.88" stop-color="#8274C5"/>
</linearGradient>
<linearGradient id="paint2_linear_629_4987" x1="-0.000808537" y1="17.9899" x2="35.9992" y2="17.9899" gradientUnits="userSpaceOnUse">
<stop stop-color="#A39BC4"/>
<stop offset="0.48" stop-color="#8E83C4"/>
<stop offset="0.88" stop-color="#8274C5"/>
</linearGradient>
<clipPath id="clip0_629_4987">
<rect width="36" height="36" fill="white"/>
</clipPath>
</defs>
</svg>
