<?xml version="1.0" encoding="UTF-8"?>
<svg xmlns="http://www.w3.org/2000/svg" xmlns:xlink="http://www.w3.org/1999/xlink" version="1.1" viewBox="0 0 36 36">
  <defs>
    <style>
      .cls-1 {
        fill: url(#linear-gradient-2);
      }

      .cls-1, .cls-2 {
        fill-rule: evenodd;
      }

      .cls-2 {
        fill: url(#linear-gradient-3);
      }

      .cls-3 {
        fill: url(#linear-gradient);
      }
    </style>
    <linearGradient id="linear-gradient" x1="0" y1="24.7" x2="36" y2="24.7" gradientTransform="translate(0 38) scale(1 -1)" gradientUnits="userSpaceOnUse">
      <stop offset="0" stop-color="#a39bc4"/>
      <stop offset=".5" stop-color="#8e83c4"/>
      <stop offset=".9" stop-color="#8274c5"/>
    </linearGradient>
    <linearGradient id="linear-gradient-2" x1="0" y1="20" x2="36" y2="20" gradientTransform="translate(0 38) scale(1 -1)" gradientUnits="userSpaceOnUse">
      <stop offset="0" stop-color="#a39bc4"/>
      <stop offset=".5" stop-color="#8e83c4"/>
      <stop offset=".9" stop-color="#8274c5"/>
    </linearGradient>
    <linearGradient id="linear-gradient-3" x1="0" y1="20" x2="36" y2="20" gradientTransform="translate(0 38) scale(1 -1)" gradientUnits="userSpaceOnUse">
      <stop offset="0" stop-color="#a39bc4"/>
      <stop offset=".5" stop-color="#8e83c4"/>
      <stop offset=".9" stop-color="#8274c5"/>
    </linearGradient>
  </defs>
  <!-- Generator: Adobe Illustrator 28.6.0, SVG Export Plug-In . SVG Version: 1.2.0 Build 709)  -->
  <g>
    <g id="Layer_1">
      <path class="cls-3" d="M22.7,14.4c-.2,0-.4,0-.6-.2-.2-.1-.3-.3-.4-.5,0-.2-.1-.4,0-.6,0-.2.1-.4.3-.5.1-.1.3-.3.5-.3.2,0,.4,0,.6,0,.2,0,.4.2.5.4.1.2.2.4.2.6,0,.1,0,.3,0,.4,0,.1-.1.2-.2.3,0,0-.2.2-.3.2-.1,0-.3,0-.4,0Z"/>
      <path class="cls-1" d="M18,0c-3.6,0-7,1.1-10,3-3,2-5.3,4.8-6.6,8.1C0,14.4-.3,18,.3,21.5c.7,3.5,2.4,6.7,4.9,9.2,2.5,2.5,5.7,4.2,9.2,4.9,3.5.7,7.1.3,10.4-1,3.3-1.4,6.1-3.7,8.1-6.6,2-3,3-6.4,3-10s-.5-4.7-1.4-6.9c-.9-2.2-2.2-4.2-3.9-5.8-1.7-1.7-3.7-3-5.8-3.9C22.7.5,20.4,0,18,0ZM26.8,20.5c0,.8,0,1.7-.2,2.5-.2.9-.6,1.7-1.3,2.4-.7.6-1.5,1.1-2.4,1.2-.8.1-1.5.2-2.3.2h-5.1c-.8,0-1.6,0-2.5-.2-.9-.2-1.7-.6-2.4-1.3-.6-.7-1.1-1.5-1.2-2.4-.1-.7-.2-1.3-.2-2v-5.8c0-.8,0-1.6.3-2.4.2-.8.7-1.6,1.3-2.2.6-.6,1.4-1,2.3-1.1.7-.1,1.3-.2,2-.2h5.8c.8,0,1.5,0,2.3.3.9.2,1.6.7,2.2,1.3.6.6,1,1.5,1.1,2.3.1.8.2,1.6.2,2.4,0,1.6,0,3.3,0,5h0Z"/>
      <path class="cls-2" d="M18,22.5c-.9,0-1.8-.3-2.5-.8-.7-.5-1.3-1.2-1.6-2-.3-.8-.4-1.7-.2-2.6.2-.9.6-1.7,1.2-2.3.6-.6,1.4-1,2.3-1.2.9-.2,1.8,0,2.6.3.8.3,1.5.9,2,1.7.5.7.7,1.6.7,2.5,0,.6-.1,1.2-.4,1.7-.2.5-.6,1-1,1.5-.4.4-.9.7-1.5,1-.5.2-1.1.3-1.7.3ZM20.4,19.6c.3-.5.5-1.1.5-1.6,0-.4,0-.8-.2-1.1-.1-.4-.4-.7-.6-1s-.6-.5-1-.6c-.4-.1-.7-.2-1.1-.2-.6,0-1.2.2-1.6.5-.5.3-.9.8-1.1,1.3-.2.5-.3,1.1-.2,1.7.1.6.4,1.1.8,1.5.4.4.9.7,1.5.8.6.1,1.2,0,1.7-.2.5-.2,1-.6,1.3-1.1Z"/>
    </g>
  </g>
</svg>