<?xml version="1.0" encoding="utf-8"?><svg xmlns="http://www.w3.org/2000/svg" xmlns:xlink="http://www.w3.org/1999/xlink"><symbol fill="none" viewBox="0 0 57 57" id="tg" xmlns="http://www.w3.org/2000/svg"><path d="M28.42 0a28.42 28.42 0 1 0 0 56.84 28.42 28.42 0 0 0 0-56.84Zm12.79 18.74-4 23.81c-.18 1.14-1.71 1.5-2.77.68l-9.29-7.21a2.59 2.59 0 0 1-.48-3.87l7.46-7.78c.43-.46-.28-1.08-.83-.73l-11.47 7.35a3 3 0 0 1-2.75.19l-6.12-2.68a1.23 1.23 0 0 1 .16-2.32l27.73-8.9c1.23-.38 2.53.46 2.36 1.46Z" fill="#6351B7"/></symbol></svg>