<?xml version="1.0" encoding="UTF-8"?><svg id="Layer_1" xmlns="http://www.w3.org/2000/svg" width="36" height="36" xmlns:xlink="http://www.w3.org/1999/xlink" viewBox="0 0 36 36"><defs><style>.cls-1{fill:url(#linear-gradient-2);}.cls-1,.cls-2{fill-rule:evenodd;}.cls-2{fill:url(#linear-gradient-3);}.cls-3{fill:url(#linear-gradient);}</style><linearGradient id="linear-gradient" x1="0" y1="24.69" x2="36" y2="24.69" gradientTransform="translate(0 38) scale(1 -1)" gradientUnits="userSpaceOnUse"><stop offset="0" stop-color="#a39bc4"/><stop offset=".48" stop-color="#8e83c4"/><stop offset=".88" stop-color="#8274c5"/></linearGradient><linearGradient id="linear-gradient-2" x1="0" y1="20" x2="36" y2="20" gradientTransform="translate(0 38) scale(1 -1)" gradientUnits="userSpaceOnUse"><stop offset="0" stop-color="#a39bc4"/><stop offset=".48" stop-color="#8e83c4"/><stop offset=".88" stop-color="#8274c5"/></linearGradient><linearGradient id="linear-gradient-3" x1="0" y1="20.01" x2="36" y2="20.01" gradientTransform="translate(0 38) scale(1 -1)" gradientUnits="userSpaceOnUse"><stop offset="0" stop-color="#a39bc4"/><stop offset=".48" stop-color="#8e83c4"/><stop offset=".88" stop-color="#8274c5"/></linearGradient></defs><path class="cls-3" d="M22.69,14.36c-.21,0-.41-.06-.59-.17-.17-.11-.31-.28-.39-.47-.08-.19-.11-.4-.07-.61.04-.2.13-.39.28-.54.14-.15.33-.25.53-.3.2-.04.41-.03.61.05.19.08.36.21.48.38.12.17.18.37.19.58,0,.14-.02.28-.07.41-.05.13-.13.25-.22.35-.1.1-.21.18-.34.23-.13.05-.26.08-.4.09Z"/><path class="cls-1" d="M17.99,0c-3.56,0-7.04,1.06-9.99,3.03-2.96,1.98-5.27,4.79-6.63,8.08C0,14.4-.35,18.02.35,21.51c.69,3.49,2.41,6.7,4.93,9.22,2.52,2.52,5.72,4.23,9.22,4.93,3.49.69,7.11.34,10.4-1.02,3.29-1.36,6.1-3.67,8.08-6.63,1.98-2.96,3.03-6.44,3.03-10,0-2.36-.47-4.71-1.37-6.89-.9-2.18-2.23-4.17-3.9-5.84-1.67-1.67-3.66-3-5.84-3.9C22.7.46,20.36,0,17.99,0ZM26.76,20.5c.02.83-.04,1.65-.2,2.46-.18.9-.62,1.73-1.28,2.38-.66.64-1.49,1.07-2.4,1.23-.76.14-1.54.2-2.32.18h-5.07c-.82.02-1.64-.05-2.45-.21-.9-.17-1.72-.62-2.36-1.27-.64-.65-1.07-1.48-1.23-2.38-.14-.66-.2-1.33-.18-1.99v-5.81c-.02-.8.07-1.6.28-2.37.22-.83.67-1.58,1.3-2.17.63-.58,1.41-.97,2.26-1.13.66-.13,1.33-.19,2-.18h5.83c.77-.02,1.54.07,2.29.26.85.21,1.62.67,2.21,1.32.59.65.99,1.45,1.13,2.32.14.78.2,1.58.18,2.38.01,1.64.01,3.33,0,4.99h0Z"/><path class="cls-2" d="M17.96,22.5c-.89,0-1.76-.28-2.49-.78-.74-.5-1.31-1.21-1.64-2.03-.33-.83-.42-1.73-.24-2.6.18-.87.61-1.67,1.25-2.3.63-.62,1.44-1.05,2.31-1.22.87-.17,1.78-.07,2.6.27.82.35,1.52.93,2.01,1.67.49.74.75,1.61.74,2.5,0,.59-.12,1.18-.35,1.73-.23.55-.57,1.04-.99,1.46-.42.42-.92.74-1.47.97-.55.22-1.14.33-1.73.33ZM20.44,19.63c.32-.48.49-1.05.49-1.64,0-.39-.07-.77-.22-1.12-.15-.36-.36-.68-.64-.95s-.6-.49-.95-.64c-.36-.15-.74-.22-1.12-.22-.58,0-1.15.17-1.64.49-.48.32-.86.78-1.09,1.32-.22.54-.28,1.13-.17,1.7.11.57.39,1.09.8,1.51.41.41.94.69,1.51.8.57.11,1.16.05,1.7-.17.54-.22,1-.6,1.32-1.09Z"/></svg>