<svg width="57" height="57" viewBox="0 0 57 57" fill="none" xmlns="http://www.w3.org/2000/svg">
<path d="M28.42 0C22.7991 0 17.3043 1.66678 12.6307 4.78961C7.95705 7.91244 4.31439 12.3511 2.16335 17.5441C0.0123045 22.7372 -0.550494 28.4515 0.546098 33.9645C1.64269 39.4774 4.34941 44.5414 8.32402 48.516C12.2986 52.4906 17.3626 55.1973 22.8755 56.2939C28.3885 57.3905 34.1028 56.8277 39.2959 54.6766C44.489 52.5256 48.9275 48.8829 52.0504 44.2093C55.1732 39.5356 56.84 34.0409 56.84 28.42C56.84 24.6878 56.1049 20.9922 54.6767 17.5441C53.2484 14.0961 51.155 10.9631 48.516 8.32404C45.8769 5.68499 42.744 3.59157 39.2959 2.16333C35.8478 0.735091 32.1522 0 28.42 0ZM41.21 18.74L37.21 42.55C37.03 43.69 35.5 44.05 34.44 43.23L25.15 36.02C24.8442 35.813 24.5861 35.5429 24.3932 35.228C24.2003 34.913 24.077 34.5605 24.0315 34.194C23.9861 33.8274 24.0195 33.4554 24.1296 33.1029C24.2397 32.7504 24.424 32.4254 24.67 32.15L32.13 24.37C32.56 23.91 31.85 23.29 31.3 23.64L19.83 30.99C19.4202 31.2392 18.9566 31.3865 18.4781 31.4196C17.9996 31.4526 17.5202 31.3705 17.08 31.18L10.96 28.5C10.7244 28.4001 10.5257 28.2291 10.3919 28.011C10.258 27.7928 10.1955 27.5383 10.2131 27.283C10.2307 27.0276 10.3275 26.7841 10.4901 26.5864C10.6527 26.3887 10.8729 26.2466 11.12 26.18L38.85 17.28C40.08 16.9 41.38 17.74 41.21 18.74Z" fill="#6351B7"/>
</svg>
